<?xml version="1.0" standalone="no"?>
<!DOCTYPE svg PUBLIC "-//W3C//DTD SVG 20010904//EN"
 "http://www.w3.org/TR/2001/REC-SVG-20010904/DTD/svg10.dtd">
<svg version="1.0" xmlns="http://www.w3.org/2000/svg"
 width="512.000000pt" height="512.000000pt" viewBox="0 0 512.000000 512.000000"
 preserveAspectRatio="xMidYMid meet">

<g transform="translate(0.000000,512.000000) scale(0.100000,-0.100000)"
fill="#ffffff" stroke="none">
<path d="M703 4489 c-45 -22 -79 -67 -89 -117 -15 -75 -31 -58 869 -960 l852
-852 -862 -863 c-750 -750 -863 -867 -872 -902 -15 -57 0 -111 42 -153 28 -28
45 -36 86 -40 27 -2 63 -1 78 2 19 5 294 273 891 869 l862 862 863 -862 c750
-750 867 -863 902 -872 57 -15 111 0 153 42 28 28 36 45 40 86 2 27 1 63 -2
78 -5 19 -273 294 -869 891 l-862 862 852 853 c746 746 853 857 864 895 33
114 -79 226 -193 193 -38 -11 -149 -118 -896 -864 l-852 -852 -848 847 c-596
596 -858 852 -884 863 -50 20 -75 19 -125 -6z"/>
</g>
</svg>
