<?xml version="1.0" encoding="UTF-8"?>
<svg xmlns="http://www.w3.org/2000/svg" xmlns:xlink="http://www.w3.org/1999/xlink" width="20px" height="20px" viewBox="0 0 20 20" version="1.1">
<g id="surface1">
<path style=" stroke:none;fill-rule:nonzero;fill:#6b6b6b;fill-opacity:1;" d="M 9.582031 18.332031 C 8.320312 18.332031 7.238281 17.898438 6.34375 17.03125 C 5.449219 16.164062 5 15.097656 5 13.832031 L 5 4.875 C 5 3.984375 5.316406 3.230469 5.949219 2.605469 C 6.578125 1.980469 7.339844 1.667969 8.230469 1.667969 C 9.132812 1.667969 9.894531 1.980469 10.519531 2.605469 C 11.144531 3.230469 11.457031 3.992188 11.457031 4.894531 L 11.457031 13.105469 C 11.457031 13.632812 11.277344 14.078125 10.917969 14.449219 C 10.554688 14.816406 10.109375 15 9.582031 15 C 9.054688 15 8.609375 14.800781 8.25 14.40625 C 7.890625 14.011719 7.707031 13.542969 7.707031 13 L 7.707031 4.832031 L 8.542969 4.832031 L 8.542969 13.0625 C 8.542969 13.367188 8.640625 13.628906 8.84375 13.84375 C 9.046875 14.058594 9.292969 14.167969 9.582031 14.167969 C 9.875 14.167969 10.121094 14.0625 10.324219 13.855469 C 10.523438 13.644531 10.625 13.394531 10.625 13.105469 L 10.625 4.875 C 10.625 4.207031 10.390625 3.644531 9.925781 3.1875 C 9.460938 2.730469 8.894531 2.5 8.230469 2.5 C 7.5625 2.5 6.996094 2.730469 6.53125 3.1875 C 6.066406 3.644531 5.832031 4.207031 5.832031 4.875 L 5.832031 13.875 C 5.832031 14.890625 6.203125 15.746094 6.9375 16.449219 C 7.671875 17.148438 8.554688 17.5 9.582031 17.5 C 10.625 17.5 11.511719 17.144531 12.238281 16.4375 C 12.96875 15.730469 13.332031 14.859375 13.332031 13.832031 L 13.332031 4.832031 L 14.167969 4.832031 L 14.167969 13.8125 C 14.167969 15.078125 13.71875 16.144531 12.824219 17.019531 C 11.925781 17.894531 10.847656 18.332031 9.582031 18.332031 Z M 9.582031 18.332031 "/>
</g>
</svg>
