<?xml version="1.0" standalone="no"?>
<!DOCTYPE svg PUBLIC "-//W3C//DTD SVG 20010904//EN"
 "http://www.w3.org/TR/2001/REC-SVG-20010904/DTD/svg10.dtd">
<svg version="1.0" xmlns="http://www.w3.org/2000/svg"
 width="512.000000pt" height="512.000000pt" viewBox="0 0 512.000000 512.000000"
 preserveAspectRatio="xMidYMid meet">

<g transform="translate(0.000000,512.000000) scale(0.100000,-0.100000)"
fill="#000000" stroke="none">
<path d="M2015 4624 c-1106 -149 -1798 -1262 -1439 -2313 150 -437 467 -798
889 -1009 395 -197 872 -235 1300 -101 179 56 438 193 570 303 l30 25 600
-599 c651 -649 619 -623 712 -605 49 9 109 69 118 118 18 93 44 61 -605 712
l-599 600 25 30 c59 71 157 229 208 335 330 687 184 1495 -366 2026 -385 372
-920 549 -1443 478z m493 -329 c352 -69 666 -266 882 -553 128 -170 214 -361
262 -580 29 -131 31 -415 5 -542 -76 -369 -266 -673 -555 -890 -170 -128 -361
-214 -580 -262 -140 -31 -424 -31 -564 0 -444 97 -808 376 -1002 766 -97 195
-142 367 -152 581 -29 609 327 1164 898 1399 97 40 248 81 353 95 98 14 354 6
453 -14z"/>
</g>
</svg>
